<?xml version="1.0" encoding="UTF-8"?>
<!DOCTYPE svg PUBLIC "-//W3C//DTD SVG 1.1//EN" "http://www.w3.org/Graphics/SVG/1.1/DTD/svg11.dtd">
<svg version="1.1" xmlns="http://www.w3.org/2000/svg" xmlns:xlink="http://www.w3.org/1999/xlink" x="0" y="0" width="968" height="256" viewBox="0, 0, 484, 128">
  <g id="Background">
    <rect x="0" y="0" width="484" height="128" fill="#000000" fill-opacity="0"/>
  </g>
  <g id="Layer_1">
    <path d="M110.758,34.511 C110.758,33.244 111.197,32.17 112.076,31.291 C112.954,30.413 114.027,29.973 115.296,29.973 C116.564,29.973 117.638,30.413 118.517,31.291 C119.396,32.17 119.834,33.244 119.834,34.511 L119.834,41.685 C122.956,38.269 126.715,35.463 131.106,33.267 C135.497,31.072 140.279,29.973 145.452,29.973 C147.012,29.973 148.257,30.413 149.186,31.291 C150.111,32.17 150.576,33.244 150.576,34.511 C150.576,35.781 150.111,36.854 149.186,37.732 C148.257,38.611 147.012,39.049 145.452,39.049 C141.939,39.049 138.669,39.733 135.645,41.099 C132.618,42.467 129.958,44.319 127.666,46.661 C125.372,49.003 123.517,51.689 122.104,54.713 C120.688,57.739 119.931,60.911 119.834,64.228 L119.834,96.579 C119.834,97.848 119.396,98.921 118.517,99.799 C117.638,100.678 116.564,101.117 115.296,101.117 C114.027,101.117 112.954,100.678 112.076,99.799 C111.197,98.921 110.758,97.848 110.758,96.579 L110.758,34.511" fill="#343534"/>
    <path d="M164.484,65.545 C164.58,69.352 165.362,72.865 166.825,76.085 C168.29,79.305 170.193,82.087 172.535,84.429 C174.876,86.771 177.608,88.601 180.732,89.919 C183.855,91.236 187.174,91.895 190.686,91.895 C194.296,91.895 197.714,91.213 200.934,89.845 C204.154,88.479 206.959,86.602 209.351,84.209 C211.741,81.819 213.619,79.013 214.987,75.793 C216.353,72.572 217.036,69.157 217.036,65.545 C217.036,61.936 216.353,58.544 214.987,55.371 C213.619,52.201 211.741,49.42 209.351,47.028 C206.959,44.637 204.154,42.76 200.934,41.392 C197.714,40.026 194.296,39.342 190.686,39.342 C187.174,39.342 183.855,40.001 180.732,41.318 C177.608,42.636 174.876,44.417 172.535,46.661 C170.193,48.907 168.29,51.566 166.825,54.64 C165.362,57.714 164.58,61.007 164.484,64.521 L164.484,65.545 z M155.408,34.511 C155.408,33.244 155.846,32.17 156.725,31.291 C157.603,30.413 158.675,29.973 159.945,29.973 C161.213,29.973 162.288,30.413 163.165,31.291 C164.045,32.17 164.484,33.244 164.484,34.511 L164.484,41.831 C167.704,38.221 171.558,35.415 176.047,33.414 C180.536,31.414 185.417,30.413 190.686,30.413 C195.663,30.413 200.298,31.342 204.593,33.194 C208.885,35.049 212.618,37.585 215.792,40.806 C218.961,44.027 221.476,47.759 223.33,52.004 C225.182,56.25 226.112,60.765 226.112,65.545 C226.112,70.425 225.16,75.012 223.257,79.305 C221.354,83.601 218.793,87.356 215.572,90.576 C212.351,93.798 208.618,96.36 204.373,98.263 C200.129,100.165 195.663,101.117 190.98,101.117 C185.513,100.922 180.536,99.532 176.047,96.945 C171.558,94.361 167.704,91.309 164.484,87.796 L164.484,123.075 C164.484,124.341 164.045,125.417 163.165,126.295 C162.288,127.174 161.213,127.613 159.945,127.613 C158.675,127.613 157.603,127.174 156.725,126.295 C155.846,125.417 155.408,124.341 155.408,123.075 L155.408,34.511" fill="#343534"/>
    <path d="M231.53,12.114 C231.53,10.847 231.969,9.773 232.847,8.894 C233.726,8.015 234.799,7.577 236.069,7.577 C237.336,7.577 238.409,8.015 239.288,8.894 C240.166,9.773 240.605,10.847 240.605,12.114 L240.605,36.707 C242.849,34.756 245.437,33.194 248.365,32.023 C251.292,30.851 254.413,30.266 257.733,30.266 C261.342,30.266 264.759,30.95 267.98,32.316 C271.201,33.683 274.004,35.562 276.397,37.951 C278.788,40.344 280.664,43.148 282.031,46.368 C283.397,49.589 284.083,53.006 284.083,56.615 L284.083,96.578 C284.083,97.848 283.643,98.921 282.764,99.799 C281.885,100.677 280.811,101.117 279.544,101.117 C278.275,101.117 277.203,100.677 276.324,99.799 C275.445,98.921 275.007,97.848 275.007,96.578 L275.007,56.615 C275.007,54.274 274.543,52.055 273.616,49.955 C272.686,47.858 271.441,46.028 269.884,44.465 C268.32,42.906 266.492,41.685 264.393,40.806 C262.294,39.928 260.076,39.488 257.733,39.488 C255.39,39.488 253.196,39.928 251.145,40.806 C249.096,41.685 247.29,42.854 245.729,44.319 C244.167,45.783 242.948,47.516 242.069,49.516 C241.191,51.518 240.701,53.639 240.605,55.884 L240.605,96.578 C240.605,97.947 240.189,99.045 239.362,99.872 C238.531,100.702 237.433,101.117 236.069,101.117 C234.799,101.117 233.749,100.677 232.922,99.799 C232.09,98.921 231.627,97.848 231.53,96.578 L231.53,12.114" fill="#343534"/>
    <path d="M351.858,65.838 C351.858,62.227 351.174,58.81 349.809,55.59 C348.442,52.369 346.563,49.565 344.174,47.173 C341.781,44.783 338.976,42.905 335.756,41.537 C332.536,40.172 329.118,39.487 325.508,39.487 C321.897,39.487 318.506,40.172 315.336,41.537 C312.163,42.905 309.381,44.783 306.991,47.173 C304.598,49.565 302.721,52.369 301.355,55.59 C299.988,58.81 299.306,62.227 299.306,65.838 C299.306,69.449 299.988,72.841 301.355,76.01 C302.721,79.184 304.598,81.965 306.991,84.355 C309.381,86.747 312.163,88.625 315.336,89.992 C318.506,91.359 321.897,92.04 325.508,92.04 C329.022,92.04 332.338,91.382 335.463,90.064 C338.585,88.746 341.342,86.917 343.734,84.575 C346.124,82.233 348.026,79.477 349.443,76.303 C350.855,73.134 351.662,69.644 351.858,65.838 z M351.858,87.795 C348.638,91.406 344.759,94.507 340.22,97.091 C335.683,99.677 330.779,100.97 325.508,100.97 C320.628,100.97 316.067,100.092 311.822,98.335 C307.577,96.578 303.843,94.14 300.624,91.015 C297.402,87.894 294.863,84.187 293.01,79.89 C291.156,75.597 290.23,70.913 290.23,65.838 C290.23,60.958 291.131,56.347 292.938,52.003 C294.743,47.662 297.231,43.879 300.403,40.658 C303.575,37.438 307.332,34.901 311.675,33.046 C316.017,31.194 320.726,30.265 325.802,30.265 C330.485,30.265 334.951,31.217 339.195,33.12 C343.44,35.023 347.174,37.584 350.395,40.805 C353.615,44.026 356.176,47.783 358.08,52.076 C359.982,56.372 360.934,60.958 360.934,65.838 L360.934,96.725 C360.934,97.994 360.495,99.066 359.617,99.945 C358.738,100.825 357.664,101.262 356.395,101.262 C355.127,101.262 354.054,100.825 353.175,99.945 C352.298,99.066 351.858,97.994 351.858,96.725 L351.858,87.795" fill="#343534"/>
    <path d="M370.45,34.511 C370.45,33.244 370.889,32.17 371.767,31.291 C372.646,30.413 373.717,29.973 374.987,29.973 C376.254,29.973 377.329,30.413 378.208,31.291 C379.087,32.17 379.526,33.244 379.526,34.511 L379.526,36.414 C381.769,34.463 384.357,32.901 387.284,31.73 C390.212,30.559 393.335,29.973 396.652,29.973 C400.262,29.973 403.678,30.657 406.898,32.023 C410.121,33.39 412.924,35.269 415.316,37.658 C417.707,40.051 419.585,42.855 420.953,46.076 C422.318,49.296 423.001,52.713 423.001,56.323 L423.001,96.579 C423.001,97.848 422.562,98.921 421.684,99.799 C420.806,100.678 419.73,101.117 418.464,101.117 C417.195,101.117 416.122,100.678 415.243,99.799 C414.365,98.921 413.926,97.848 413.926,96.579 L413.926,56.323 C413.926,53.981 413.461,51.762 412.535,49.663 C411.607,47.565 410.363,45.736 408.802,44.173 C407.24,42.613 405.41,41.392 403.312,40.513 C401.214,39.635 398.993,39.196 396.652,39.196 C394.311,39.196 392.113,39.635 390.065,40.513 C388.016,41.392 386.21,42.562 384.648,44.027 C383.087,45.49 381.868,47.224 380.988,49.223 C380.112,51.225 379.622,53.347 379.526,55.591 L379.526,96.579 C379.526,97.848 379.087,98.921 378.208,99.799 C377.329,100.678 376.254,101.117 374.987,101.117 C373.717,101.117 372.646,100.678 371.767,99.799 C370.889,98.921 370.45,97.848 370.45,96.579 L370.45,34.511" fill="#343534"/>
    <path d="M432.078,48.565 C432.078,45.15 432.759,42.269 434.129,39.928 C435.493,37.585 437.299,35.682 439.544,34.219 C441.788,32.755 444.326,31.707 447.158,31.072 C449.987,30.438 452.815,30.12 455.647,30.12 C457.988,30.12 460.478,30.39 463.113,30.925 C465.749,31.462 468.186,32.268 470.432,33.34 C472.676,34.415 474.531,35.733 475.996,37.292 C477.46,38.854 478.19,40.71 478.19,42.854 C478.19,43.931 477.826,44.978 477.092,46.003 C476.361,47.028 475.165,47.54 473.508,47.54 C471.651,47.54 470.234,46.467 469.262,44.319 C468.383,42.467 466.674,41.075 464.137,40.148 C461.598,39.22 458.768,38.757 455.647,38.757 C453.987,38.757 452.302,38.88 450.596,39.122 C448.888,39.367 447.35,39.854 445.987,40.586 C444.618,41.318 443.471,42.321 442.546,43.588 C441.617,44.857 441.156,46.514 441.156,48.565 C441.156,50.029 441.617,51.298 442.546,52.37 C443.471,53.446 444.643,54.347 446.059,55.078 C447.471,55.811 449.035,56.373 450.742,56.762 C452.449,57.154 454.085,57.493 455.647,57.787 C459.257,58.372 462.647,59.228 465.82,60.347 C468.991,61.472 471.772,62.91 474.165,64.667 C476.555,66.424 478.458,68.523 479.875,70.962 C481.288,73.402 481.996,76.23 481.996,79.451 C481.996,82.672 481.312,85.626 479.948,88.308 C478.579,90.993 476.702,93.285 474.311,95.188 C471.919,97.091 469.113,98.555 465.893,99.579 C462.674,100.604 459.257,101.117 455.647,101.117 C449.499,101.117 444.105,99.702 439.47,96.87 C434.836,94.042 431.737,90.138 430.176,85.16 C430.078,84.868 430.03,84.429 430.03,83.843 C430.03,82.576 430.444,81.452 431.275,80.477 C432.102,79.503 433.199,79.013 434.568,79.013 C435.639,79.013 436.592,79.329 437.423,79.964 C438.251,80.6 438.909,81.452 439.398,82.526 C440.665,85.651 442.84,88.015 445.914,89.626 C448.988,91.236 452.229,92.041 455.647,92.041 C460.427,92.041 464.505,90.943 467.87,88.746 C471.238,86.551 472.922,83.453 472.922,79.451 C472.922,76.23 471.259,73.5 467.943,71.254 C464.626,69.009 460.526,67.547 455.647,66.863 C448.621,65.888 442.935,63.96 438.594,61.081 C434.25,58.203 432.078,54.032 432.078,48.565" fill="#343534"/>
    <path d="M53.051,0.387 C81.246,0.387 104.101,23.243 104.101,51.436 C104.101,79.631 81.246,102.485 53.051,102.485 C24.859,102.485 2.003,79.63 2.003,51.436 C2.003,23.243 24.859,0.387 53.051,0.387 z M53.051,9.387 C29.83,9.387 11.003,28.214 11.003,51.436 C11.003,74.66 29.829,93.485 53.051,93.485 C76.275,93.485 95.101,74.66 95.101,51.436 C95.101,28.214 76.275,9.387 53.051,9.387 z" fill="#9D1535"/>
  </g>
</svg>
